<svg width="313" height="207" viewBox="0 0 313 207" fill="none" xmlns="http://www.w3.org/2000/svg">
<mask id="mask0" mask-type="alpha" maskUnits="userSpaceOnUse" x="0" y="0" width="313" height="207">
<rect width="313" height="207" fill="#2C2828"/>
</mask>
<g mask="url(#mask0)">
<mask id="mask1" mask-type="alpha" maskUnits="userSpaceOnUse" x="-101" y="0" width="414" height="207">
<rect x="-101" width="414" height="207" fill="#FF9B26"/>
</mask>
<g mask="url(#mask1)">
<g opacity="0.6">
<g opacity="0.6">
<g opacity="0.6">
<path opacity="0.5" d="M289.23 -4.89014H335.86L359.17 35.4899L335.86 75.8699H289.23L265.92 35.4899L289.23 -4.89014ZM334.67 73.8099L356.8 35.4799L334.67 -2.85013H290.41L268.28 35.4799L290.41 73.8099H334.67Z" fill="#A58686"/>
<path opacity="0.5" d="M213.42 126.45H260.05L283.36 166.83L260.05 207.21H213.42L190.11 166.83L213.42 126.45ZM258.86 205.16L280.99 166.83L258.86 128.5H214.6L192.47 166.83L214.6 205.16H258.86Z" fill="#A58686"/>
<path opacity="0.5" d="M335.27 162.07H289.82L267.1 122.72L289.82 83.3599H335.27L357.99 122.72L335.27 162.07Z" fill="#A58686"/>
<path opacity="0.5" d="M259.45 122.71H214.01L191.29 83.3495L214.01 43.9995H259.45L282.17 83.3495L259.45 122.71Z" fill="#A58686"/>
<path opacity="0.8" d="M259.45 35.4898H214.01L191.29 -3.87021L214.01 -43.2202H259.45L282.17 -3.87021L259.45 35.4898Z" fill="#A58686"/>
<path opacity="0.5" d="M185.55 78.9498H140.11L117.39 39.5898L140.11 0.239746H185.55L208.27 39.5898L185.55 78.9498Z" fill="#A58686"/>
<path opacity="0.8" d="M184.52 164.78H139.08L116.36 125.43L139.08 86.0698H184.52L207.24 125.43L184.52 164.78Z" fill="#A58686"/>
</g>
</g>
</g>
<path d="M135.24 200.92H99.1902L81.1602 169.7L99.1902 138.48H135.24L153.27 169.7L135.24 200.92ZM100.35 198.92H134.09L150.96 169.7L134.09 140.48H100.35L83.4802 169.7L100.35 198.92Z" fill="#463E3E"/>
<path d="M213.43 101.04H151.54L120.59 47.4398L120.88 46.9398L151.54 -6.16016H213.43L244.38 47.4398L244.09 47.9398L213.43 101.04ZM152.69 99.0399H212.27L242.06 47.4398L212.27 -4.16016H152.69L122.9 47.4398L152.69 99.0399Z" fill="#463E3E"/>
<path d="M46.0101 73.6802H15.7101L0.560059 47.4402L15.7101 21.2002H46.0101L61.1601 47.4402L46.0101 73.6802ZM16.8701 71.6802H44.8601L58.8601 47.4402L44.8601 23.2002H16.8701L2.87006 47.4402L16.8701 71.6802Z" fill="#463E3E"/>
<path d="M69.5958 -40.1872L44.5054 21.8198L46.3594 22.57L71.4498 -39.437L69.5958 -40.1872Z" fill="#463E3E"/>
<path d="M121.75 46.4399H60.0098V48.4399H121.75V46.4399Z" fill="#463E3E"/>
<path d="M151.188 99.6486L134.745 139.088L136.591 139.858L153.034 100.418L151.188 99.6486Z" fill="#463E3E"/>
</g>
</g>
</svg>
