<svg width="57" height="75" viewBox="0 0 57 75" fill="none" xmlns="http://www.w3.org/2000/svg">
<path d="M46.875 75H9.375C8.51094 75 7.8125 74.3016 7.8125 73.4375V56.25C7.8125 55.3859 8.51094 54.6875 9.375 54.6875H46.875C47.7391 54.6875 48.4375 55.3859 48.4375 56.25V73.4375C48.4375 74.3016 47.7391 75 46.875 75ZM10.9375 71.875H45.3125V57.8125H10.9375V71.875Z" fill="#A67032"/>
<path d="M40.625 70.3125H15.625C14.7609 70.3125 14.0625 69.6141 14.0625 68.75V60.9375C14.0625 60.0734 14.7609 59.375 15.625 59.375H40.625C41.4891 59.375 42.1875 60.0734 42.1875 60.9375V68.75C42.1875 69.6141 41.4891 70.3125 40.625 70.3125ZM17.1875 67.1875H39.0625V62.5H17.1875V67.1875Z" fill="#A67032"/>
<path d="M28.125 39.0625C26.686 39.0625 25.25 38.7766 23.9094 38.2031C23.8375 38.1734 23.7672 38.1359 23.7 38.0953C7.49848 28.0781 10.2891 2.44531 10.4157 1.35938C10.5063 0.585938 11.175 0 11.9719 0H44.2782C45.075 0 45.7438 0.585938 45.8344 1.35938C45.961 2.44531 48.7516 28.0781 32.55 38.0953C32.4829 38.1359 32.4125 38.1734 32.3407 38.2031C31 38.7766 29.5641 39.0625 28.125 39.0625ZM25.2672 35.4375C27.0891 36.1828 29.1579 36.1828 30.9797 35.4375C43.4422 27.625 43.1579 8.35469 42.8297 3.06719H13.4219C13.0954 8.35781 12.8266 27.6375 25.2672 35.4375Z" fill="#A67032"/>
<path d="M39.0625 31.2501H43.1969C43.7953 31.2501 44.3844 31.086 44.8984 30.7751C55.0703 24.5907 56.225 13.0892 56.25 8.42822C56.2547 7.38447 55.8562 6.38135 55.1547 5.67666C54.5187 5.0376 53.6891 4.68604 52.8172 4.68604H45.3125C44.4484 4.68604 43.75 5.38447 43.75 6.24854C43.75 7.1126 44.4484 7.81104 45.3125 7.81104H52.8172C53.0562 7.99854 53.1266 8.19697 53.125 8.4126C53.1031 12.547 52.1 22.7392 43.2797 28.1017L39.0625 28.1251C38.1984 28.1251 37.5 28.8235 37.5 29.6876C37.5 30.5517 38.1984 31.2501 39.0625 31.2501Z" fill="#A67032"/>
<path d="M17.1875 31.25H13.0532C12.4547 31.25 11.8657 31.0859 11.3516 30.775C1.17973 24.5906 0.0250409 13.0891 4.0899e-05 8.42812C-0.0046466 7.38437 0.393791 6.38125 1.09535 5.67656C1.73129 5.03906 2.56254 4.6875 3.43285 4.6875H10.9375C11.8016 4.6875 12.5 5.38594 12.5 6.25C12.5 7.11406 11.8016 7.8125 10.9375 7.8125H3.43285C3.19379 8 3.12348 8.19844 3.12504 8.41406C3.14692 12.5484 4.15004 22.7406 12.9704 28.1031L17.1875 28.125C18.0516 28.125 18.75 28.8234 18.75 29.6875C18.75 30.5516 18.0516 31.25 17.1875 31.25Z" fill="#A67032"/>
<path d="M23.4392 37.439C23.1955 43.6624 21.3955 49.0421 17.4236 55.4249C16.9673 56.1577 17.1908 57.1218 17.9236 57.5765C18.1798 57.7374 18.4658 57.8124 18.747 57.8124C19.2689 57.8124 19.7783 57.5515 20.0752 57.0749C24.3533 50.1999 26.2923 44.364 26.5595 37.5608C26.5611 37.5187 26.5408 37.4812 26.5392 37.439H23.4392Z" fill="#A67032"/>
<path d="M38.8266 55.4249C34.8547 49.0421 33.0562 43.664 32.8109 37.439H29.7094C29.7078 37.4812 29.6875 37.5187 29.6891 37.5608C29.9562 44.364 31.8953 50.1999 36.1734 57.0749C36.4687 57.5515 36.9797 57.8124 37.5016 57.8124C37.7844 57.8124 38.0687 57.7358 38.325 57.5765C39.0578 57.1218 39.2828 56.1562 38.8266 55.4249Z" fill="#A67032"/>
</svg>
