<svg width="227" height="477" viewBox="0 0 227 477" fill="none" xmlns="http://www.w3.org/2000/svg">
<g opacity="0.6">
<g opacity="0.6">
<g opacity="0.6">
<path opacity="0.5" d="M206.075 223.789H243.919L262.837 256.561L243.919 289.333H206.075L187.156 256.561L206.075 223.789ZM242.953 287.67L260.914 256.561L242.953 225.453H207.032L189.072 256.561L207.032 287.67H242.953Z" fill="#9E7E58"/>
<path opacity="0.5" d="M243.433 360.307H206.554L188.114 328.363L206.554 296.427H243.433L261.872 328.363L243.433 360.307Z" fill="#9E7E58"/>
</g>
</g>
<g opacity="0.6">
<g opacity="0.6">
<path opacity="0.5" d="M202.43 70.1379H240.275L259.193 102.91L240.275 135.682H202.43L183.512 102.91L202.43 70.1379ZM239.309 134.01L257.27 102.902L239.309 71.7936H203.388L185.428 102.902L203.388 134.01H239.309Z" fill="#9E7E58"/>
<path opacity="0.5" d="M80.9183 1.66382H118.763L137.681 34.436L118.763 67.2082H80.9183L62 34.436L80.9183 1.66382ZM117.805 65.5444L135.766 34.436L117.805 3.32759H81.8841L63.9235 34.436L81.8841 65.5444H117.805Z" fill="#9E7E58"/>
<path opacity="0.5" d="M140.895 176.741H178.739L197.658 209.513L178.739 242.285H140.895L121.977 209.513L140.895 176.741ZM177.782 240.613L195.742 209.505L177.782 178.397H141.861L123.9 209.505L141.861 240.613H177.782Z" fill="#9E7E58"/>
<path opacity="0.5" d="M239.788 205.642H202.909L184.47 173.706L202.909 141.761H239.788L258.227 173.706L239.788 205.642Z" fill="#9E7E58"/>
<path opacity="0.5" d="M178.261 173.697H141.382L122.942 141.753L141.382 109.817H178.261L196.7 141.753L178.261 173.697Z" fill="#9E7E58"/>
<path opacity="0.8" d="M178.261 102.91H141.382L122.942 70.966L141.382 39.0298H178.261L196.7 70.966L178.261 102.91Z" fill="#9E7E58"/>
<path opacity="0.5" d="M239.788 64.7084H202.909L184.47 32.7722L202.909 0.835938H239.788L258.227 32.7722L239.788 64.7084Z" fill="#9E7E58"/>
<path opacity="0.5" d="M118.284 138.182H81.4055L62.958 106.238L81.4055 74.3015H118.284L136.724 106.238L118.284 138.182Z" fill="#9E7E58"/>
<path opacity="0.8" d="M117.448 207.841H80.5693L62.1299 175.905L80.5693 143.969H117.448L135.888 175.905L117.448 207.841Z" fill="#9E7E58"/>
</g>
<g opacity="0.6">
<path opacity="0.8" d="M175.128 32.7721C175.128 30.4591 177.003 28.5762 179.324 28.5762C181.637 28.5762 183.52 30.451 183.52 32.7721C183.52 35.0852 181.646 36.9681 179.324 36.9681C177.003 36.9681 175.128 35.0852 175.128 32.7721Z" fill="#9E7E58"/>
<path opacity="0.8" d="M142.169 33.1373C142.169 35.4504 140.294 37.3333 137.973 37.3333C135.66 37.3333 133.777 35.4585 133.777 33.1373C133.777 30.8243 135.652 28.9414 137.973 28.9414C140.294 28.9495 142.169 30.8243 142.169 33.1373Z" fill="#9E7E58"/>
<path opacity="0.8" d="M154.644 32.3096H151.308V33.9733H154.644V32.3096Z" fill="#9E7E58"/>
<path opacity="0.8" d="M147.972 32.3096H144.645V33.9733H147.972V32.3096Z" fill="#9E7E58"/>
<path opacity="0.8" d="M174.625 32.3096H171.297V33.9733H174.625V32.3096Z" fill="#9E7E58"/>
<path opacity="0.8" d="M161.299 32.3096H157.971V33.9733H161.299V32.3096Z" fill="#9E7E58"/>
<path opacity="0.8" d="M167.97 32.3096H164.634V33.9733H167.97V32.3096Z" fill="#9E7E58"/>
</g>
</g>
</g>
<path d="M194.761 268.065H165.503L150.87 242.727L165.503 217.389H194.761L209.394 242.727L194.761 268.065ZM166.444 266.442H193.827L207.519 242.727L193.827 219.012H166.444L152.753 242.727L166.444 266.442Z" fill="#DD9847"/>
<path d="M258.219 187.003H207.989L182.871 143.501L183.106 143.096L207.989 100H258.219L283.338 143.501L283.102 143.907L258.219 187.003ZM208.923 185.38H257.278L281.455 143.501L257.278 101.623H208.923L184.745 143.501L208.923 185.38Z" fill="#DD9847"/>
<path d="M237.848 35.0449H220.569L211.934 20.0791L220.569 5.11328H237.848L246.484 20.0791L237.848 35.0449ZM221.503 33.4217H236.907L244.609 20.0791L236.907 6.73647H221.503L213.801 20.0791L221.503 33.4217Z" fill="#DD9847"/>
<path d="M124.046 113.948H99.4548L87.1592 92.6517L99.4548 71.3555H124.046L136.342 92.6517L124.046 113.948ZM100.388 112.325H123.113L134.475 92.6517L123.113 72.9787H100.388L89.0258 92.6517L100.388 112.325Z" fill="#DD9847"/>
<path d="M207.704 185.874L194.359 217.883L195.857 218.508L209.202 186.499L207.704 185.874Z" fill="#DD9847"/>
</svg>
