<svg width="118" height="27" viewBox="0 0 118 27" fill="none" xmlns="http://www.w3.org/2000/svg">
<path d="M100.475 12.0655L90.2559 3.37939H116.314L102.519 24.8392L100.475 12.0655Z" stroke="black" stroke-width="2" stroke-linecap="round" stroke-linejoin="round"/>
<path d="M100.986 12.0655L115.803 3.37939" stroke="black" stroke-width="2"/>
<path d="M70.9771 24.5225L68.8167 18.6917C69.8996 16.8353 70.495 14.659 70.4133 12.332C70.1946 6.10975 65.0571 1.07487 58.8525 1.00083C52.121 0.921498 46.6752 6.54343 47.0151 13.3553C47.3128 19.3395 52.1605 24.1973 58.1201 24.4934C60.3964 24.6045 62.5358 24.065 64.3747 23.0417L70.5398 24.9826C70.8191 25.0725 71.0799 24.7975 70.9771 24.5225Z" stroke="black" stroke-width="2" stroke-miterlimit="10"/>
<path d="M24.6628 5.16527C20.5548 0.149475 14.1256 5.74148 13.5233 6.28469V6.23392C13.5233 6.23392 6.65053 -0.193203 2.33835 5.07389C-0.627995 8.69613 1.8595 13.3896 4.7326 16.7554C8.4752 21.1366 12.9915 24.5152 13.4779 24.8731V25C13.4779 25 18.3093 21.4869 22.2661 16.8493C25.1417 13.4809 27.6267 8.78751 24.6628 5.16527Z" stroke="black" stroke-width="2" stroke-miterlimit="10" stroke-linecap="round" stroke-linejoin="round"/>
</svg>
