<svg width="257" height="569" viewBox="0 0 257 569" fill="none" xmlns="http://www.w3.org/2000/svg">
<mask id="mask0" mask-type="alpha" maskUnits="userSpaceOnUse" x="0" y="0" width="257" height="569">
<rect width="257" height="569" fill="#2C2828"/>
</mask>
<g mask="url(#mask0)">
<g opacity="0.6">
<g opacity="0.6">
<g opacity="0.6">
<path opacity="0.5" d="M184.52 277.74H231.15L254.46 318.12L231.15 358.5H184.52L161.21 318.12L184.52 277.74ZM229.96 356.45L252.09 318.12L229.96 279.79H185.7L163.57 318.12L185.7 356.45H229.96Z" fill="#A58686"/>
<path opacity="0.5" d="M258.42 493.45H305.05L328.36 533.83L305.05 574.21H258.42L235.11 533.83L258.42 493.45ZM303.86 572.16L325.99 533.83L303.86 495.5H259.6L237.47 533.83L259.6 572.16H303.86Z" fill="#A58686"/>
<path opacity="0.5" d="M304.45 489.71H259.01L236.29 450.35L259.01 411H304.45L327.17 450.35L304.45 489.71Z" fill="#A58686"/>
<path opacity="0.8" d="M304.45 402.49H259.01L236.29 363.13L259.01 323.78H304.45L327.17 363.13L304.45 402.49Z" fill="#A58686"/>
<path opacity="0.5" d="M230.55 445.95H185.11L162.39 406.59L185.11 367.24H230.55L253.27 406.59L230.55 445.95Z" fill="#A58686"/>
<path opacity="0.8" d="M229.52 531.78H184.08L161.36 492.43L184.08 453.07H229.52L252.24 492.43L229.52 531.78Z" fill="#A58686"/>
</g>
<g opacity="0.6">
<path opacity="0.8" d="M259.98 316.52C259.98 319.37 257.67 321.69 254.81 321.69C251.96 321.69 249.64 319.38 249.64 316.52C249.64 313.67 251.95 311.35 254.81 311.35C257.67 311.36 259.98 313.67 259.98 316.52Z" fill="#A58686"/>
</g>
</g>
<g opacity="0.6">
<g opacity="0.6">
<path opacity="0.8" d="M301.89 216.02H256.45L233.73 176.66L256.45 137.31H301.89L324.61 176.66L301.89 216.02Z" fill="#A58686"/>
<path opacity="0.5" d="M255.86 49.0601H302.49L325.8 89.4401L302.49 129.82H255.86L232.55 89.4401L255.86 49.0601ZM301.3 127.77L323.43 89.4401L301.3 51.1201H257.04L234.91 89.4501L257.04 127.78H301.3V127.77Z" fill="#A58686"/>
<path opacity="0.5" d="M180.03 88.42H226.66L249.97 128.8L226.66 169.18H180.03L156.72 128.8L180.03 88.42ZM225.47 167.12L247.6 128.79L225.47 90.46H181.21L159.08 128.79L181.21 167.12H225.47Z" fill="#A58686"/>
<path opacity="0.5" d="M30.31 4.05005H76.94L100.25 44.43L76.94 84.81H30.31L7 44.43L30.31 4.05005ZM75.76 82.76L97.89 44.43L75.76 6.10005H31.5L9.37 44.43L31.5 82.76H75.76Z" fill="#A58686"/>
<path opacity="0.5" d="M104.21 219.77H150.84L174.15 260.15L150.84 300.53H104.21L80.8999 260.15L104.21 219.77ZM149.66 298.47L171.79 260.14L149.66 221.81H105.4L83.2699 260.14L105.4 298.47H149.66Z" fill="#A58686"/>
<path opacity="0.5" d="M226.06 255.38H180.62L157.9 216.03L180.62 176.67H226.06L248.78 216.03L226.06 255.38Z" fill="#A58686"/>
<path opacity="0.5" d="M150.25 216.02H104.81L82.0898 176.66L104.81 137.31H150.25L172.97 176.66L150.25 216.02Z" fill="#A58686"/>
<path opacity="0.8" d="M150.25 128.8H104.81L82.0898 89.4401L104.81 50.0901H150.25L172.97 89.4401L150.25 128.8Z" fill="#A58686"/>
<path opacity="0.5" d="M226.06 81.73H180.62L157.9 42.38L180.62 3.03003H226.06L248.78 42.38L226.06 81.73Z" fill="#A58686"/>
<path opacity="0.5" d="M76.3502 172.26H30.9102L8.18018 132.9L30.9102 93.55H76.3502L99.0702 132.9L76.3502 172.26Z" fill="#A58686"/>
<path opacity="0.8" d="M75.3202 258.09H29.8802L7.16016 218.74L29.8802 179.39H75.3202L98.0402 218.74L75.3202 258.09Z" fill="#A58686"/>
</g>
<g opacity="0.6">
<path opacity="0.8" d="M146.39 42.38C146.39 39.53 148.7 37.21 151.56 37.21C154.41 37.21 156.73 39.52 156.73 42.38C156.73 45.23 154.42 47.55 151.56 47.55C148.7 47.55 146.39 45.23 146.39 42.38Z" fill="#A58686"/>
<path opacity="0.8" d="M105.78 42.8299C105.78 45.6799 103.47 47.9999 100.61 47.9999C97.7599 47.9999 95.4399 45.6899 95.4399 42.8299C95.4399 39.9799 97.7499 37.6599 100.61 37.6599C103.47 37.6699 105.78 39.9799 105.78 42.8299Z" fill="#A58686"/>
<path opacity="0.8" d="M121.15 41.8099H117.04V43.8599H121.15V41.8099Z" fill="#A58686"/>
<path opacity="0.8" d="M112.93 41.8099H108.83V43.8599H112.93V41.8099Z" fill="#A58686"/>
<path opacity="0.8" d="M145.77 41.8099H141.67V43.8599H145.77V41.8099Z" fill="#A58686"/>
<path opacity="0.8" d="M129.35 41.8099H125.25V43.8599H129.35V41.8099Z" fill="#A58686"/>
<path opacity="0.8" d="M137.57 41.8099H133.46V43.8599H137.57V41.8099Z" fill="#A58686"/>
</g>
<g opacity="0.6">
<path opacity="0.8" d="M255.03 221.61H256.45V223.66H255.03C254.55 226.02 252.47 227.8 249.97 227.8C247.12 227.8 244.8 225.49 244.8 222.63C244.8 219.78 247.11 217.46 249.97 217.46C252.47 217.47 254.56 219.25 255.03 221.61Z" fill="#A58686"/>
</g>
</g>
</g>
<path d="M180.24 567.92H144.19L126.16 536.7L144.19 505.48H180.24L198.27 536.7L180.24 567.92ZM145.35 565.92H179.09L195.96 536.7L179.09 507.48H145.35L128.48 536.7L145.35 565.92Z" fill="#463E3E"/>
<path d="M258.43 468.04H196.54L165.59 414.44L165.88 413.94L196.54 360.84H258.43L289.38 414.44L289.09 414.94L258.43 468.04ZM197.69 466.04H257.27L287.06 414.44L257.27 362.84H197.69L167.9 414.44L197.69 466.04Z" fill="#463E3E"/>
<path d="M295.59 173.53H245.07L219.81 129.77L245.07 86.01H295.59L320.85 129.77L295.59 173.53ZM246.22 171.53H294.44L318.55 129.77L294.44 88.01H246.22L222.11 129.77L246.22 171.53Z" fill="#463E3E"/>
<path d="M223.67 45.18H202.38L191.74 26.74L202.38 8.30005H223.67L234.31 26.74L223.67 45.18ZM203.53 43.18H222.51L232 26.74L222.51 10.3H203.53L194.04 26.74L203.53 43.18Z" fill="#463E3E"/>
<path d="M223.97 43.7051L222.201 44.6367L244.75 87.4747L246.52 86.5431L223.97 43.7051Z" fill="#463E3E"/>
<path d="M187.55 328.19H114.93L78.6299 265.3L78.9199 264.8L114.94 202.41H187.56L223.87 265.3L223.58 265.8L187.55 328.19ZM116.09 326.19H186.4L221.56 265.3L186.4 204.41H116.09L80.9399 265.3L116.09 326.19Z" fill="#463E3E"/>
<path d="M83.45 142.4H53.15L38 116.16L53.15 89.92H83.45L98.6 116.16L83.45 142.4ZM54.3 140.4H82.3L96.3 116.16L82.3 91.92H54.3L40.3 116.16L54.3 140.4Z" fill="#463E3E"/>
<path d="M91.0101 440.68H60.7101L45.5601 414.44L60.7101 388.2H91.0101L106.16 414.44L91.0101 440.68ZM61.8701 438.68H89.8601L103.86 414.44L89.8601 390.2H61.8701L47.8701 414.44L61.8701 438.68Z" fill="#463E3E"/>
<path d="M83.7566 140.926L81.9868 141.858L114.63 203.871L116.4 202.94L83.7566 140.926Z" fill="#463E3E"/>
<path d="M292.35 264.3H222.71V266.3H292.35V264.3Z" fill="#463E3E"/>
<path d="M114.596 326.813L89.5054 388.82L91.3594 389.57L116.45 327.563L114.596 326.813Z" fill="#463E3E"/>
<path d="M166.75 413.44H105.01V415.44H166.75V413.44Z" fill="#463E3E"/>
<path d="M196.188 466.649L179.745 506.089L181.591 506.858L198.034 467.419L196.188 466.649Z" fill="#463E3E"/>
<path d="M308.508 539H273.657L256.227 508.819L273.657 478.637H308.508L325.938 508.819L308.508 539ZM274.779 537.066H307.396L323.705 508.819L307.396 480.571H274.779L258.47 508.819L274.779 537.066Z" fill="#FFC000"/>
<path d="M315.574 307.247H245.371L210.278 246.449L210.559 245.966L245.38 185.652H315.584L350.686 246.449L350.405 246.933L315.574 307.247ZM246.492 305.313H314.463L348.453 246.449L314.463 187.585H246.492L212.511 246.449L246.492 305.313Z" fill="#FFC000"/>
<path d="M214.938 127.638H185.646L171 102.271L185.646 76.9044H214.938L229.584 102.271L214.938 127.638ZM186.758 125.705H213.826L227.36 102.271L213.826 78.8379H186.758L173.223 102.271L186.758 125.705Z" fill="#FFC000"/>
<path d="M222.246 415.994H192.955L178.309 390.627L192.955 365.26H222.246L236.892 390.627L222.246 415.994ZM194.076 414.06H221.135L234.669 390.627L221.135 367.193H194.076L180.542 390.627L194.076 414.06Z" fill="#FFC000"/>
<path d="M215.234 126.213L213.523 127.114L245.081 187.064L246.791 186.164L215.234 126.213Z" fill="#FFC000"/>
<path d="M245.048 305.916L220.792 365.859L222.584 366.585L246.84 306.641L245.048 305.916Z" fill="#FFC000"/>
<path d="M295.466 389.66H235.78V391.594H295.466V389.66Z" fill="#FFC000"/>
</g>
</svg>
